<svg width="350" height="50" viewBox="0 0 421 145" fill="none" xmlns="http://www.w3.org/2000/svg">
    <path d="M28.5879 23.0428C23.1037 35.7268 14.3523 55.7043 9.21813 67.5428L0 89L22.2869 88.3658L28.5879 72.5107L48.541 72.1936L68.3775 71.9822L71.878 80.1211L75.2619 88.3658L86.5804 88.6829C92.7647 88.7886 97.7821 88.5772 97.6655 88.1544C97.6655 87.7316 88.7974 67.7542 78.179 43.9715L58.6926 0.634204L38.6228 0L28.5879 23.0428ZM55.0754 38.3694C58.2259 46.0855 61.0263 53.0618 61.2597 53.696C61.7264 54.753 58.8093 55.0701 48.7744 55.0701C38.8561 55.0701 35.8223 54.753 36.1724 53.696C44.457 32.9786 48.0743 24.4169 48.6577 24.4169C49.1244 24.4169 51.9249 30.7589 55.0754 38.3694Z" fill="black"/>
    <path d="M102.45 16.9121L129.871 17.5463L130.221 53.2732L130.454 89L150.874 88.3658L151.107 52.9561L151.457 17.5463L178.295 16.9121V0.105694H102.45V16.9121Z" fill="black"/>
    <path d="M211.784 23.0427C206.299 35.7268 197.548 55.7043 192.414 67.5428L183.196 89L205.599 88.3658L211.9 72.5107L231.737 72.1936L251.573 71.9822L255.074 80.1211L258.458 88.3658L269.893 88.6829C278.761 88.8943 281.094 88.6829 280.628 87.6259C277.011 78.9584 243.055 3.38242 242.355 1.90261C241.422 0.422797 239.555 0.105694 231.503 0.105694H221.702L211.784 23.0427ZM238.388 38.6865C241.422 46.1912 244.222 53.0618 244.455 53.696C244.922 54.753 242.005 55.0701 231.97 55.0701C222.052 55.0701 219.018 54.753 219.368 53.696C219.718 53.0618 222.519 45.8741 225.669 37.9466C228.82 30.019 231.737 23.7827 232.087 24.2055C232.553 24.6283 235.354 31.076 238.388 38.6865Z" fill="black"/>
    <path d="M294.28 1.47981C294.047 2.21971 293.93 22.0914 294.047 45.557L294.397 88.3658H314.233L315.4 33.4014L359.74 88.7886L368.258 88.8943H376.66V0.105696H356.823V27.2708C356.823 51.1591 356.59 54.2245 355.073 52.9561C353.556 51.4762 336.17 29.5962 320.417 9.30166L313.3 0.105696H304.081C297.664 0.105696 294.747 0.528499 294.28 1.47981Z" fill="#FF0202"/>
    <path d="M399.997 89L420.417 88.3658L420.767 44.1829L421 0.105694H399.997V89Z" fill="#FF0202"/>
    <path d="M185 103.547H195.43L206.445 130.422H206.914L217.93 103.547H228.359V143.547H220.156V117.512H219.824L209.473 143.352H203.887L193.535 117.414H193.203V143.547H185V103.547ZM272.085 123.547C272.085 127.909 271.258 131.62 269.605 134.68C267.964 137.74 265.724 140.077 262.886 141.691C260.06 143.293 256.883 144.094 253.355 144.094C249.8 144.094 246.61 143.286 243.784 141.672C240.959 140.057 238.726 137.72 237.085 134.66C235.444 131.6 234.624 127.896 234.624 123.547C234.624 119.185 235.444 115.474 237.085 112.414C238.726 109.354 240.959 107.023 243.784 105.422C246.61 103.807 249.8 103 253.355 103C256.883 103 260.06 103.807 262.886 105.422C265.724 107.023 267.964 109.354 269.605 112.414C271.258 115.474 272.085 119.185 272.085 123.547ZM263.511 123.547C263.511 120.721 263.088 118.339 262.241 116.398C261.408 114.458 260.23 112.987 258.706 111.984C257.183 110.982 255.399 110.48 253.355 110.48C251.31 110.48 249.526 110.982 248.003 111.984C246.48 112.987 245.295 114.458 244.448 116.398C243.615 118.339 243.198 120.721 243.198 123.547C243.198 126.372 243.615 128.755 244.448 130.695C245.295 132.635 246.48 134.107 248.003 135.109C249.526 136.112 251.31 136.613 253.355 136.613C255.399 136.613 257.183 136.112 258.706 135.109C260.23 134.107 261.408 132.635 262.241 130.695C263.088 128.755 263.511 126.372 263.511 123.547ZM275 110.52V103.547H307.851V110.52H295.605V143.547H287.246V110.52H275ZM348.193 123.547C348.193 127.909 347.366 131.62 345.712 134.68C344.072 137.74 341.832 140.077 338.994 141.691C336.168 143.293 332.991 144.094 329.462 144.094C325.908 144.094 322.718 143.286 319.892 141.672C317.067 140.057 314.834 137.72 313.193 134.66C311.552 131.6 310.732 127.896 310.732 123.547C310.732 119.185 311.552 115.474 313.193 112.414C314.834 109.354 317.067 107.023 319.892 105.422C322.718 103.807 325.908 103 329.462 103C332.991 103 336.168 103.807 338.994 105.422C341.832 107.023 344.072 109.354 345.712 112.414C347.366 115.474 348.193 119.185 348.193 123.547ZM339.619 123.547C339.619 120.721 339.196 118.339 338.349 116.398C337.516 114.458 336.337 112.987 334.814 111.984C333.291 110.982 331.507 110.48 329.462 110.48C327.418 110.48 325.634 110.982 324.111 111.984C322.587 112.987 321.403 114.458 320.556 116.398C319.723 118.339 319.306 120.721 319.306 123.547C319.306 126.372 319.723 128.755 320.556 130.695C321.403 132.635 322.587 134.107 324.111 135.109C325.634 136.112 327.418 136.613 329.462 136.613C331.507 136.613 333.291 136.112 334.814 135.109C336.337 134.107 337.516 132.635 338.349 130.695C339.196 128.755 339.619 126.372 339.619 123.547ZM354.458 143.547V103.547H370.239C373.26 103.547 375.838 104.087 377.973 105.168C380.122 106.236 381.756 107.753 382.876 109.719C384.008 111.672 384.575 113.97 384.575 116.613C384.575 119.27 384.002 121.555 382.856 123.469C381.71 125.37 380.05 126.828 377.876 127.844C375.714 128.859 373.097 129.367 370.024 129.367H359.458V122.57H368.657C370.271 122.57 371.613 122.349 372.68 121.906C373.748 121.464 374.542 120.799 375.063 119.914C375.597 119.029 375.864 117.928 375.864 116.613C375.864 115.285 375.597 114.165 375.063 113.254C374.542 112.342 373.741 111.652 372.661 111.184C371.593 110.702 370.245 110.461 368.618 110.461H362.915V143.547H354.458ZM376.059 125.344L386.001 143.547H376.665L366.938 125.344H376.059ZM412.251 115.051C412.094 113.475 411.424 112.251 410.239 111.379C409.054 110.507 407.446 110.07 405.415 110.07C404.034 110.07 402.869 110.266 401.919 110.656C400.968 111.034 400.239 111.561 399.731 112.238C399.236 112.915 398.989 113.684 398.989 114.543C398.963 115.259 399.113 115.884 399.438 116.418C399.777 116.952 400.239 117.414 400.825 117.805C401.411 118.182 402.088 118.514 402.856 118.801C403.624 119.074 404.445 119.309 405.317 119.504L408.911 120.363C410.655 120.754 412.257 121.275 413.715 121.926C415.174 122.577 416.437 123.378 417.504 124.328C418.572 125.279 419.399 126.398 419.985 127.687C420.584 128.977 420.89 130.454 420.903 132.121C420.89 134.569 420.265 136.691 419.028 138.488C417.804 140.272 416.033 141.659 413.715 142.648C411.411 143.625 408.631 144.113 405.376 144.113C402.146 144.113 399.334 143.618 396.938 142.629C394.555 141.639 392.693 140.174 391.352 138.234C390.024 136.281 389.327 133.866 389.262 130.988H397.446C397.537 132.329 397.921 133.449 398.598 134.348C399.288 135.233 400.206 135.904 401.352 136.359C402.511 136.802 403.82 137.023 405.278 137.023C406.71 137.023 407.954 136.815 409.008 136.398C410.076 135.982 410.903 135.402 411.489 134.66C412.075 133.918 412.368 133.065 412.368 132.102C412.368 131.203 412.101 130.448 411.567 129.836C411.046 129.224 410.278 128.703 409.262 128.273C408.26 127.844 407.029 127.453 405.571 127.102L401.215 126.008C397.843 125.187 395.18 123.905 393.227 122.16C391.274 120.415 390.304 118.065 390.317 115.109C390.304 112.687 390.948 110.572 392.251 108.762C393.566 106.952 395.369 105.539 397.661 104.523C399.952 103.508 402.557 103 405.473 103C408.442 103 411.033 103.508 413.247 104.523C415.473 105.539 417.205 106.952 418.442 108.762C419.679 110.572 420.317 112.668 420.356 115.051H412.251Z" fill="black"/>
</svg>
