<svg width="137" height="29" viewBox="0 0 421 89" fill="none" xmlns="http://www.w3.org/2000/svg">
    <path d="M28.5879 23.0428C23.1037 35.7268 14.3523 55.7043 9.21813 67.5428L0 89L11.0851 88.6829L22.2869 88.3658L25.4374 80.4382L28.5879 72.5107L48.541 72.1936L68.3775 71.9822L71.878 80.1211L75.2619 88.3658L86.5804 88.6829C92.7647 88.7886 97.7821 88.5772 97.6655 88.1544C97.6655 87.7316 88.7974 67.7542 78.179 43.9715L58.6926 0.634207L48.6577 0.317105L38.6228 3.08454e-06L28.5879 23.0428ZM55.0754 38.3694C58.2259 46.0855 61.0263 53.0618 61.2597 53.696C61.7264 54.753 58.8093 55.0701 48.7744 55.0701C38.8561 55.0701 35.8223 54.753 36.1724 53.696C44.457 32.9786 48.0743 24.4169 48.6577 24.4169C49.1244 24.4169 51.9249 30.7589 55.0754 38.3694Z" fill="black"/>
    <path d="M102.45 8.56175V16.9121L116.218 17.2292L129.871 17.5463L130.221 53.2732L130.454 89L140.722 88.6829L150.874 88.3658L151.107 52.9561L151.457 17.5463L164.876 17.2292L178.295 16.9121V8.56175V0.105698H140.372H102.45V8.56175Z" fill="black"/>
    <path d="M211.784 23.0428C206.299 35.7268 197.548 55.7043 192.414 67.5428L183.196 89L194.397 88.6829L205.599 88.3658L208.75 80.4382L211.9 72.5107L231.737 72.1936L251.573 71.9822L255.074 80.1211L258.458 88.3658L269.893 88.6829C278.761 88.8943 281.094 88.6829 280.628 87.6259C277.011 78.9584 243.055 3.38242 242.355 1.90261C241.422 0.4228 239.555 0.105698 231.503 0.105698H221.702L211.784 23.0428ZM238.388 38.6865C241.422 46.1912 244.222 53.0618 244.455 53.696C244.922 54.753 242.005 55.0701 231.97 55.0701C222.052 55.0701 219.018 54.753 219.368 53.696C219.718 53.0618 222.519 45.8741 225.669 37.9466C228.82 30.019 231.737 23.7827 232.087 24.2055C232.553 24.6283 235.354 31.076 238.388 38.6865Z" fill="black"/>
    <path d="M294.28 1.47981C294.047 2.21971 293.93 22.0914 294.047 45.557L294.397 88.3658H304.315H314.233L314.816 60.8836L315.4 33.4014L337.57 61.095L359.74 88.7886L368.258 88.8943H376.66V44.5V0.105701H366.741H356.823V27.2708C356.823 51.1591 356.59 54.2245 355.073 52.9561C353.556 51.4762 336.17 29.5962 320.417 9.30166L313.3 0.105701H304.081C297.664 0.105701 294.747 0.528503 294.28 1.47981Z" fill="#FF0202"/>
    <path d="M399.997 44.5V89L410.265 88.6829L420.417 88.3658L420.767 44.1829L421 0.105698H410.498H399.997V44.5Z" fill="#FF0202"/>
</svg>
